<?xml version="1.0" encoding="iso-8859-1"?>
<!-- Generator: Adobe Illustrator 19.0.0, SVG Export Plug-In . SVG Version: 6.00 Build 0)  -->
<svg version="1.1" id="Capa_1" xmlns="http://www.w3.org/2000/svg" xmlns:xlink="http://www.w3.org/1999/xlink" x="0px" y="0px"
	 viewBox="0 0 512.003 512.003" style="enable-background:new 0 0 512.003 512.003;" xml:space="preserve">
<path style="fill:#AB5034;" d="M5.423,401.133c-9.254-9.238-6.236-24.885,5.794-30.032l0,0c22.757-9.736,38.51-30.935,41.244-55.5
	l0,0c2.587-23.238,20.961-41.581,44.239-44.163l0,0c23.277-2.582,41.652-20.926,44.239-44.163l0,0
	c2.587-23.238,20.961-41.581,44.239-44.163l0,0c23.277-2.582,41.652-20.926,44.239-44.163l0,0
	c2.587-23.238,20.961-41.581,44.239-44.163l0,0c23.277-2.582,41.652-20.926,44.239-44.163l0,0
	c2.587-23.238,20.961-41.581,44.239-44.163l8.136-0.902c20.023-2.221,39.971,4.765,54.216,18.985
	c2.988,2.982,84.337,84.193,81.852,81.712c11.415,11.396,4.558,30.915-11.489,32.695l0,0c-23.277,2.582-41.652,20.926-44.239,44.163
	l0,0c-2.587,23.238-20.961,41.581-44.239,44.163l0,0c-23.277,2.582-41.652,20.926-44.239,44.163l0,0
	c-2.587,23.238-20.961,41.581-44.239,44.163l0,0c-23.277,2.582-41.652,20.926-44.239,44.163l0,0
	c-2.587,23.238-20.961,41.581-44.239,44.163l0,0c-23.277,2.582-41.652,20.926-44.239,44.163l0,0
	c-2.734,24.565-18.489,45.764-41.244,55.5l-0.002,0.001c-15.166,6.489-32.762,3.106-44.43-8.542
	C97.228,492.781,3.878,399.591,5.423,401.133z"/>
<path style="fill:#D05422;" d="M5.423,401.133c-9.254-9.238-6.236-24.885,5.794-30.032l0,0c22.757-9.736,38.51-30.935,41.244-55.5
	l0,0c2.587-23.238,20.961-41.581,44.239-44.163l0,0c23.277-2.582,41.652-20.926,44.239-44.163l0,0
	c2.587-23.238,20.961-41.581,44.239-44.163l0,0c23.277-2.582,41.652-20.926,44.239-44.163l0,0
	c2.587-23.238,20.961-41.581,44.239-44.163l0,0c23.277-2.582,41.652-20.926,44.239-44.163l0,0
	c2.587-23.238,20.961-41.581,44.239-44.163l8.136-0.902c20.023-2.221,39.971,4.765,54.216,18.985
	c2.988,2.982,84.337,84.193,81.852,81.712c11.415,11.396,4.558,30.915-11.489,32.695l0,0c-23.277,2.582-41.652,20.926-44.239,44.163
	l0,0c-2.587,23.238-20.961,41.581-44.239,44.163l0,0c-23.277,2.582-41.652,20.926-44.239,44.163l0,0
	c-2.587,23.238-20.961,41.581-44.239,44.163l0,0c-23.277,2.582-41.652,20.926-44.239,44.163l0,0
	c-2.587,23.238-20.961,41.581-44.239,44.163l0,0c-23.277,2.582-41.652,20.926-44.239,44.163l0,0
	c-2.734,24.565-18.489,45.764-41.244,55.5l-0.002,0.001c-15.166,6.489-32.762,3.106-44.43-8.542
	C97.228,492.781,3.878,399.591,5.423,401.133z"/>
<path style="fill:#EFA628;" d="M30.342,426.009l25.114-10.745c22.757-9.736,38.51-30.935,41.244-55.5l0,0
	c2.587-23.238,20.961-41.581,44.239-44.163l0,0c23.277-2.582,41.652-20.926,44.239-44.163l0,0
	c2.587-23.238,20.961-41.581,44.239-44.163l0,0c23.277-2.582,41.652-20.926,44.239-44.163l0,0
	c2.587-23.238,20.961-41.581,44.239-44.163l0,0c23.277-2.582,41.652-20.926,44.239-44.163l0,0
	c2.587-23.238,20.961-41.581,44.239-44.163l39.814-4.416l44.239,44.163l-39.814,4.416c-23.277,2.582-41.652,20.926-44.239,44.163
	l0,0c-2.587,23.238-20.961,41.581-44.239,44.163l0,0c-23.277,2.582-41.652,20.926-44.239,44.163l0,0
	c-2.587,23.238-20.961,41.581-44.239,44.163l0,0c-23.277,2.582-41.652,20.926-44.239,44.163l0,0
	c-2.587,23.238-20.961,41.581-44.239,44.163l0,0c-23.277,2.582-41.652,20.926-44.239,44.163l0,0
	c-2.734,24.565-18.489,45.764-41.244,55.5l-25.114,10.745L30.342,426.009z"/>
<path style="fill:#C14216;" d="M99.5,495.05c11.668,11.647,29.263,15.03,44.43,8.542l0.002-0.001
	c22.757-9.736,38.51-30.935,41.244-55.5l0,0c2.587-23.237,20.961-41.581,44.239-44.163l0,0
	c23.277-2.582,41.652-20.926,44.239-44.163l0,0c2.587-23.238,20.961-41.581,44.239-44.163l0,0
	c23.277-2.582,41.652-20.926,44.239-44.163l0,0c2.587-23.238,20.961-41.581,44.239-44.163l0,0
	c23.277-2.582,41.652-20.926,44.239-44.163l0,0c2.587-23.238,20.961-41.581,44.239-44.163l0,0
	c16.046-1.78,22.904-21.298,11.489-32.695c2.485,2.481-78.864-78.73-81.852-81.712c-14.247-14.223-34.195-21.208-54.218-18.987
	l-1.587,0.176c2.037,1.399,3.968,2.984,5.755,4.768c1.956,1.952,78.925,79.106,105.073,105.322
	c-12.296,3.53-23.625,10.142-32.734,19.236c-12.137,12.116-19.865,28.17-21.762,45.204c-1.263,11.346-10.097,20.153-21.482,21.415
	c-17.041,1.89-33.106,9.598-45.234,21.706c-12.137,12.116-19.865,28.17-21.762,45.205c-1.263,11.345-10.097,20.152-21.482,21.414
	c-17.041,1.89-33.106,9.598-45.234,21.706c-12.137,12.117-19.865,28.17-21.762,45.205c-1.263,11.346-10.096,20.152-21.481,21.414
	c-17.042,1.89-33.107,9.599-45.235,21.706c-12.137,12.117-19.865,28.171-21.762,45.206c-1.704,15.311-11.582,28.597-25.778,34.669
	l-0.099,0.042c-6.319,2.676-26.126,8.391-44.102,5.215C95.339,490.896,99.068,494.619,99.5,495.05z"/>
<path style="fill:#E39510;" d="M457.735,93.996c-13.532-13.565-29.64-29.712-44.074-44.181l32.525-3.608l9.856,9.839
	c0.004,0.004,0.008,0.008,0.012,0.012l18.932,18.899c0.051,0.052,0.102,0.102,0.152,0.152l8.337,8.323
	c0.317,0.316,0.633,0.632,0.946,0.945l6.004,5.994L457.735,93.996z"/>
<g>
</g>
<g>
</g>
<g>
</g>
<g>
</g>
<g>
</g>
<g>
</g>
<g>
</g>
<g>
</g>
<g>
</g>
<g>
</g>
<g>
</g>
<g>
</g>
<g>
</g>
<g>
</g>
<g>
</g>
</svg>
